# xmcd
#
# Track frame offsets:
#	150
#	23220
#	42058
#	62211
#	82436
#	105680
#	126687
#	145815
#	166783
#	192059
#	213323
#	234880
#	254606
#	275080
#	292695
#	310307
#
# Disc length: 4349 seconds
#
# Revision: 0
# Processed by: cddbd v1.4PL0 Copyright (c) Steve Scherf et al.
# Submitted via: dBpowerAMP V4.0
#
DISCID=ed10fb10
DTITLE=Various Artist - 玛利亚.凯莉 - 情感
DYEAR=2002
DGENRE=Blues
TTITLE0=你是如此酷 - 玛利亚.凯莉
TTITLE1=情感 - 玛利亚.凯莉 
TTITLE2=你不记得的沙 - 玛利亚.凯莉 
TTITLE3=不能离开 - 玛利亚.凯莉 
TTITLE4=让它发生 - 玛利亚.凯莉 
TTITLE5=结束 - 玛利亚.凯莉 
TTITLE6=如此有福 - 玛利亚.凯莉 
TTITLE7=在你周围 - 玛利亚.凯莉 
TTITLE8=到时为止 - 玛利亚.凯莉 
TTITLE9=风 - 玛利亚.凯莉 
TTITLE10=心啐 - 玛利亚.凯莉 
TTITLE11=心上人 - 玛利亚.凯莉 
TTITLE12=当你相信我 - 玛利亚.凯莉 
TTITLE13=梦中情人 - 玛利亚.凯莉 
TTITLE14=我永远相信 - 玛利亚.凯莉 
TTITLE15=不能没有你 - 玛利亚.凯莉 
EXTD=阿杰音乐工作室
EXTT0=
EXTT1=
EXTT2=
EXTT3=
EXTT4=
EXTT5=
EXTT6=
EXTT7=
EXTT8=
EXTT9=
EXTT10=
EXTT11=
EXTT12=
EXTT13=
EXTT14=
EXTT15=
PLAYORDER=
